<svg xmlns="http://www.w3.org/2000/svg" width="320" height="120" viewBox="0 0 320 120">
  <!-- Marc -->
  <rect x="3" y="3" width="314" height="114" rx="12" ry="12"
        fill="#fff" stroke="#111" stroke-width="3"/>
  
  <!-- Logo (color heretat: negre) -->
  <g transform="translate(18,20) scale(0.092)" style="color:#000">
    <!-- El teu logo: viewBox original 2048 x 543; scale ~ 0.092 per cabre a ~188 px d'ample -->
    <g>
      <path d="m 1801.0816,444.15241 c -1.5909,-2.97251 -3.0659,-13.99036 -3.074,-22.96174 l -0.01,-8.30932 -5.96,7.40868 c -11.0948,13.79161 -24.4931,22.54338 -34.6818,22.6541 l -5.1419,0.0559 -5.0776,-4.56518 c -4.5627,-4.10232 -7.7462,-9.2667 -11.7612,-19.07964 l -0.8775,-2.14482 -4.0748,2.14482 c -2.2411,1.17965 -6.2667,3.60732 -8.9457,5.39482 -11.253,7.50811 -21.3855,2.11541 -29.3019,-15.59491 l -1.9421,-4.34491 -6.2596,11.84491 c -12.8369,24.29056 -15.611,27.38636 -23.2557,25.9522 -9.6595,-1.81214 -12.9902,-15.32827 -9.1722,-37.22192 5.4435,-31.21574 18.7488,-48.98986 31.0552,-41.48562 l 3.1031,1.89227 2.3973,-19.64601 2.3973,-19.64601 2.3046,-0.32676 c 1.2675,-0.17972 2.9548,0.21288 3.7495,0.87244 l 1.445,1.19921 v 36.72833 c 0,38.68384 0.206,40.73821 4.6898,46.77783 7.0473,9.49257 16.9019,8.60175 27.4743,-2.48355 l 5.6641,-5.93889 0.5407,-4.4143 c 0.2974,-2.42787 0.7555,-8.55519 1.0179,-13.61626 0.5873,-11.32686 2.679,-16.45912 9.4802,-23.26026 9.0729,-9.07297 16.4739,-12.74186 19.1641,-9.50033 l 1.276,1.53746 -1.7114,6.21254 c -0.9413,3.4169 -5.3884,12.72512 -9.8825,20.68494 -9.5741,16.95728 -11.6362,22.35892 -11.6806,30.5961 -0.1619,30.10454 24.7189,30.06889 47.8041,-0.0685 2.5278,-3.3 4.9487,-6.15 5.3797,-6.33333 0.431,-0.18334 0.7952,-3.10834 0.8094,-6.5 0.029,-6.85543 1.5985,-24.54662 2.5831,-29.11014 l 0.635,-2.94347 1.2699,1.73672 1.2699,1.73671 3.8582,-2.63695 c 10.4167,-7.11964 21.0757,-10.69736 30.5347,-10.24916 l 6.3234,0.29962 0.3268,2.30504 c 0.5798,4.09023 -1.2391,4.93604 -11.6036,5.39596 -11.4064,0.50616 -18.5221,3.09755 -23.2305,8.46007 L 1807,377.06959 v 32.2427 32.2427 l -1.5567,2.2225 c -1.8958,2.70661 -3.0603,2.80671 -4.3617,0.37492 z m -133.4019,-14.18927 c 8.9904,-8.72613 14.6108,-21.38243 18.7534,-42.2295 2.7483,-13.83111 2.7647,-13.73364 -2.3128,-13.73364 -17.1098,0 -28.6435,22.61447 -25.6743,50.34046 1.1103,10.36764 3.098,11.57801 9.2337,5.62268 z M 1547.1629,441.25 c -0.4991,-0.9625 -1.4686,-19.075 -2.1545,-40.25 -0.6858,-21.175 -1.3414,-38.61065 -1.4569,-38.74589 -0.1155,-0.13524 -3.0993,2.26649 -6.6307,5.33717 -3.5315,3.07069 -7.6037,6.20215 -9.0494,6.95879 l -2.6286,1.37572 -1.7115,-1.89123 c -6.9513,-7.68104 29.0042,-31.51628 52.18,-34.59066 l 4.8249,-0.64004 2.4073,1.94934 2.4074,1.94933 0.4376,6.05028 c 0.5985,8.27464 -1.077,12.88 -13.5512,37.24719 -13.7624,26.88361 -14.5486,32.73279 -4.7105,35.04289 10.0247,2.35393 29.1456,-5.6212 42.5827,-17.76081 l 3.6877,-3.3316 2.6014,1.18528 c 9.1048,4.1484 -7.6619,17.53734 -32.2756,25.77351 -10.3726,3.47084 -22.5453,5.00546 -25.8166,3.25471 l -2.0536,-1.09906 -0.5019,4.45311 c -0.8742,7.75524 -6.1246,12.48236 -8.588,7.73197 z m 19.6927,-60.00871 C 1580.3307,350.99569 1579.7584,352.75837 1577,350 c -4.46,-4.46001 -18.8365,-0.0845 -22.4067,6.8196 l -1.4499,2.80382 0.5832,24.7 c 0.3208,13.585 0.6736,24.58223 0.7839,24.43829 0.1104,-0.14394 5.6656,-12.52813 12.3451,-27.52042 z m 295.3312,59.26243 c -5.1527,-4.33568 -8.6544,-18.43612 -5.3893,-21.7012 1.6971,-1.69714 3.2025,0.092 3.2025,3.80616 0,15.84066 22.9114,17.52032 30.7669,2.25555 l 2.3765,-4.61792 -1.0661,-3.95929 c -1.1546,-4.28764 -7.318,-10.7146 -21.1505,-22.0549 -8.4688,-6.94288 -14.351,-13.68416 -13.6148,-15.60289 0.8841,-2.30378 22.8758,-33.09214 24.9138,-34.87923 2.4502,-2.14847 7.7742,-2.3644 7.7742,-0.3153 0,0.78909 -5.175,8.38222 -11.5,16.87364 -14.429,19.37118 -14.4896,17.60374 1,29.16091 22.5576,16.83074 25.8143,30.26501 10.8308,44.67737 -6.725,6.46865 -11.9005,8.85338 -19.2142,8.85338 h -5.9631 z M 1631,441.29629 c -8.1886,-2.97963 -9.2187,-9.08856 -8.8138,-52.27252 l 0.3138,-33.47623 2.633,-0.92566 c 1.4481,-0.50911 3.3606,-0.64643 4.25,-0.30516 l 1.617,0.62051 v 38.54608 38.54609 l 3.25,1.98156 c 1.7875,1.08986 4.6644,1.98325 6.393,1.9853 3.7368,0.004 4.9421,2.1643 2.4608,4.40978 -1.7223,1.5587 -8.8301,2.08148 -12.1038,0.89025 z M 779.34995,267.04811 C 743.19819,257.40599 715.53711,230.3094 706.3113,195.5 l -2.65038,-10 -0.0686,-16.5 C 703.33721,107.66277 744.656,61 799.22377,61 802.86489,61 804,60.632743 804,59.454687 c 0,-1.179169 0.77005,-1.427027 3.25,-1.046087 1.7875,0.274574 6.46123,0.767161 10.38606,1.094637 C 864.8302,63.440975 898.23348,89.230202 914.12737,134 l 3.37263,9.5 -0.0191,19.5 c -0.0524,53.42491 -21.80108,84.09594 -71.848,101.32352 L 833.5,268.5 l -23.5,0.22755 -23.5,0.22756 z m 50.33499,-43.62237 c 20.08615,-4.43875 34.43978,-17.96266 39.37747,-37.10122 C 881.15796,139.44196 855.22551,104.71213 808,104.54716 l -13.5,-0.0472 -10.57511,4.80033 -10.57512,4.80034 -6.34205,7.19966 c -44.47816,50.49275 -3.7769,116.81083 62.67722,102.12541 z m 377.96546,43.00006 c -35.7131,-9.79699 -62.9285,-37.71845 -71.7374,-73.5985 l -2.29,-9.3273 -0.039,-15 c -0.1531,-58.5276 37.8258,-103.747999 89.9651,-107.118887 7.9622,-0.514767 10.4511,-1.008615 10.4511,-2.073708 0,-1.013005 0.8951,-1.260541 3.25,-0.898805 1.7875,0.274574 6.4612,0.767161 10.3861,1.094637 71.4337,5.960216 114.5385,66.420593 96.9071,135.925383 -9.0566,35.70195 -33.2828,58.56061 -74.9223,70.69294 l -9.8792,2.87844 -21.6208,-0.0733 -21.6209,-0.0733 z m 52.2536,-43.04999 c 26.6584,-5.90471 40.358,-23.93247 41.8169,-55.02819 1.8984,-40.46007 -25.7144,-66.3151 -68.5084,-64.14733 l -8.7125,0.44134 -9.8899,4.42918 -9.89,4.42919 -7.7909,8.32309 c -44.9797,48.05213 -2.7723,116.11542 62.9748,101.55272 z m -626.05617,42.90716 -4.65218,-0.38456 -8.88584,-9.19921 C 608.49464,244.46738 591.84274,224.2827 566.52196,191.5 c -11.46988,-14.85 -24.89313,-31.95 -29.82944,-38 l -8.97512,-11 0.73015,49.03688 c 0.40158,26.97028 0.40422,54.75778 0.006,61.75 L 527.72915,266 H 505.86457 484 V 167.65833 69.316654 l 6.25,-1.908327 c 6.55531,-2.001547 27.50749,-2.738356 32.75,-1.151694 2.92558,0.885436 9.64459,9.24019 42.01486,52.243367 30.53264,40.56192 53.23315,68.58533 54.51751,67.30097 0.3587,-0.3587 0.0986,-12.49109 -0.57791,-26.96087 -1.8745,-40.09103 -0.0401,-85.038457 3.71887,-91.120561 0.70783,-1.14528 31.63721,-0.277333 37.32667,1.047469 l 3.5,0.814983 V 168.041 266.5 l -12.5,0.0838 c -6.875,0.0461 -14.59348,-0.0893 -17.15217,-0.30079 z m 903.42297,-0.0142 -4.2291,-0.38177 -13.152,-14.19352 c -13.0311,-14.06315 -26.2718,-29.89241 -41.1489,-49.19352 -33.124,-42.97422 -46.688,-59.88612 -47.4333,-59.14085 -0.2018,0.20181 0.1427,18.76606 0.7656,41.25389 1.023,36.93082 0.649,76.34166 -0.7592,80.0114 l -0.5426,1.41393 -21.6357,-0.26919 L 1387.5,265.5 v -98 -98 l 5.5,-1.885762 c 6.4187,-2.20074 19.0959,-3.15824 28.4921,-2.151988 l 6.6037,0.707195 5.5337,6.665277 c 3.0435,3.665903 15.04,19.265278 26.6588,34.665278 34.2806,45.43687 39.8696,52.52347 59.8613,75.90155 l 2.6497,3.09845 -0.1497,-50.5 -0.1496,-50.5 1.8798,-9.39106 1.8798,-9.391059 17.1202,0.613111 c 9.4161,0.337211 18.6952,0.981619 20.6202,1.432017 l 3.5,0.818906 0.255,97.896965 0.2549,97.89696 -1.2549,0.79677 c -1.2318,0.78203 -21.1662,0.84707 -29.4842,0.0962 z M 202,264.88216 c -21.95821,-1.02622 -21.71478,-0.96575 -22.70536,-5.64022 -0.97918,-4.62072 -0.83542,-136.58613 0.18576,-170.51077 l 0.74557,-24.76883 22.13702,0.26883 L 224.5,64.5 l 0.5,41.28213 0.5,41.28214 10.5,-10.28536 c 5.775,-5.65695 19.23649,-19.73391 29.91442,-31.28214 C 276.59235,93.948548 289.85931,79.8875 295.39655,74.25 L 305.46427,64 h 25.76786 C 348.30643,64 357,64.348799 357,65.033845 c 0,0.568615 -13.86158,14.856115 -30.8035,31.75 -25.82256,25.749335 -37.99865,38.809635 -45.97783,49.316685 l -1.21547,1.60054 11.12702,15.89946 c 6.11986,8.74471 18.83164,26.23697 28.2484,38.8717 9.41676,12.63472 23.12383,31.98472 30.46015,43 L 362.17754,265.5 336.83877,265.79249 311.5,266.08498 307.20579,261.3969 C 299.50854,252.99368 285.83682,233.91039 268,206.67261 l -17.5,-26.72344 -2.40352,0.583 c -14.88266,3.60994 -22.49672,22.48663 -25.07379,62.16263 -1.2162,18.72434 -1.78227,23.37566 -2.818,23.15522 C 219.81711,265.76752 211.625,265.33199 202,264.88216 Z M 401.75,265.26203 389,264.94025 V 165.51713 66.094008 l 3.75,-1.056588 c 10.09543,-2.844454 38.45963,-4.173615 40.71552,-1.90795 0.34471,0.346209 0.12776,30.721209 -0.48212,67.5 -1.01357,61.12353 -0.77256,110.26056 0.61831,126.06223 l 0.54499,6.19171 -3.82335,0.96334 c -5.42582,1.3671 -13.8834,1.78602 -28.57335,1.41528 z m 603.8471,-0.81041 C 985.12625,260.60399 945,240.37564 945,233.90356 c 0,-1.33038 8.33477,-11.3125 16.5516,-19.823 l 8.12892,-8.41944 6.10547,3.70887 c 35.20311,21.38478 67.50301,24.91844 79.85871,8.73667 10.8015,-14.14627 -2.2718,-27.6612 -32.873,-33.98348 -42.60307,-8.80192 -63.40392,-25.0058 -69.0865,-53.8185 l -2.06689,-10.47985 1.17237,-8.16241 c 4.52211,-31.484501 34.56808,-51.202577 77.70932,-50.997801 24.4616,0.11611 49.202,7.997901 62.285,19.842735 l 4.5941,4.159251 -3.3232,5.916698 c -4.0027,7.126367 -7.86,12.299117 -13.9757,18.741867 -6.9316,7.3023 -6.8901,7.29553 -16.1557,2.63685 -4.467,-2.24597 -12.915,-5.7189 -18.7732,-7.71763 l -10.6513,-3.63406 -11,-0.0464 -11,-0.0464 -5.2594,2.76284 c -22.95914,12.06088 -8.01857,31.89635 31.7594,42.16451 26.0345,6.72046 35.3748,10.29481 43.2155,16.53765 2.7752,2.20963 5.4219,4.0175 5.8816,4.0175 0.4597,0 3.0694,2.95049 5.7994,6.55664 l 4.9635,6.55663 2.07,8.81715 c 8.3239,35.45519 -8.1093,63.87641 -43.43,75.11233 l -7,2.22678 -18.5,0.33375 c -13.3829,0.24143 -20.6859,-0.0771 -26.4029,-1.15166 z M 1630.75,265.25277 1618,264.94025 V 165.51713 66.094008 l 3.75,-1.056588 c 10.0796,-2.839995 38.4587,-4.174629 40.709,-1.914493 0.3411,0.34261 0.097,28.46761 -0.5414,62.500003 -1.0657,56.77094 -0.6774,126.32822 0.7451,133.44036 l 0.5869,2.93449 -3.3748,1.37101 c -4.2478,1.72568 -12.8587,2.28269 -29.1248,1.88398 z m 108.8339,-0.32622 c -9.3039,-0.42147 -18.3664,-1.03837 -20.1389,-1.37089 l -3.2227,-0.60459 -0.7334,-23.46911 c -0.4033,-12.90801 -0.3408,-57.5595 0.1389,-99.22554 L 1716.5,64.5 1738.75,64.230868 1761,63.961737 v 41.519133 c 0,22.83552 0.3431,41.51913 0.7625,41.51913 0.8281,0 25.517,-24.86096 36.7729,-37.02907 8.6743,-9.37731 15.7092,-16.953538 30.8471,-33.22093 l 11.8648,-12.75 26.4597,0 c 17.1854,0 26.3428,0.350306 26.1263,0.99943 -0.1833,0.549687 -14.5414,15.287187 -31.9069,32.75 -28.0398,28.19694 -45.9264,47.56436 -45.9264,49.72853 0,1.25902 22.5633,33.04381 39.1998,55.22048 15.2304,20.30234 42.8002,60.49292 42.8002,62.39313 0,0.52059 -10.7825,0.90843 -25.2558,0.90843 h -25.2558 l -8.5638,-10.75 c -11.6022,-14.56397 -16.0086,-20.82022 -35.2814,-50.09252 -17.9858,-27.31744 -17.2196,-26.62614 -24.2802,-21.90748 -13.0938,8.75072 -21.3271,40.16233 -21.3619,81.5 -6e-4,0.6875 -0.3386,1.18089 -0.7511,1.09642 -0.4125,-0.0845 -8.3623,-0.49841 -17.6661,-0.91987 z"
            fill="currentColor"/>
    </g>
  </g>

  <!-- Textos (ID i Data) -->
  <text x="20" y="100" font-family="Inter, system-ui, Arial" font-size="12" fill="#111">
    ID: <tspan id="RID">0000</tspan> · <tspan id="DATE">dd/mm/aaaa</tspan>
  </text>
</svg>